<?xml version="1.0" encoding="UTF-8"?>
<svg id="Layer_3" data-name="Layer 3" xmlns="http://www.w3.org/2000/svg" version="1.1" viewBox="0 0 1920 1080">
  <defs>
    <style>
      .cls-1 {
        fill: #F2F0EF;
      }

      .cls-1, .cls-2, .cls-3, .cls-4 {
        stroke-width: 0px;
      }

      .cls-2 {
        fill: #020202;
      }

      .cls-3 {
        fill: #000;
      }

      .cls-4 {
        fill: #F2F0EF;
      }
    </style>
  </defs>
  <g>
    <circle class="cls-3" cx="966.48" cy="544.91" r="524.33"/>
    <g>
      <g>
        <path class="cls-3" d="M514.77,225.17c-.12-.34-4.29-.39-4.75-.43-2.2-.16-4.44-.35-6.65-.32-4.77.06-9.55.37-14.35.53-4.45.15-9.14-.41-12.78-3.19s-5.86-7.02-4.5-11.46c1.97-6.43,13.15-8.47,20.53-7.24,15.36,2.56,21.97,20.59,22.5,22.1Z"/>
        <path class="cls-3" d="M509.77,233.4c-1.22,1.16-2.38,2.38-3.55,3.59-1.49,1.54-2.96,3.09-4.42,4.67-1.69,1.83-3.35,3.69-4.99,5.57-.73.84-1.46,1.69-2.18,2.55-5.64,6.72-10.67,15.18-19.26,18.44-6.58,2.5-16.22,1.21-19.93-5.49-2.92-5.27-1.23-11.58,2.25-16.12s9.31-7.22,14.92-8.6c5.59-1.37,11.39-1.81,17.09-2.5,3.35-.4,6.7-.76,10.05-1.09,1.62-.16,1.96-.19,3.58-.33,1.13-.1,2.26-.16,3.38-.25.63-.05,1.25-.11,1.87-.16.39-.03.82-.08,1.17-.29Z"/>
      </g>
      <g>
        <path class="cls-3" d="M1417.89,225.17c.12-.34,4.29-.39,4.75-.43,2.2-.16,4.44-.35,6.65-.32,4.77.06,9.55.37,14.35.53,4.45.15,9.14-.41,12.78-3.19s5.86-7.02,4.5-11.46c-1.97-6.43-13.15-8.47-20.53-7.24-15.36,2.56-21.97,20.59-22.5,22.1Z"/>
        <path class="cls-3" d="M1422.9,233.4c1.22,1.16,2.38,2.38,3.55,3.59,1.49,1.54,2.96,3.09,4.42,4.67,1.69,1.83,3.35,3.69,4.99,5.57.73.84,1.46,1.69,2.18,2.55,5.64,6.72,10.67,15.18,19.26,18.44,6.58,2.5,16.22,1.21,19.93-5.49,2.92-5.27,1.23-11.58-2.25-16.12-3.6-4.69-9.31-7.22-14.92-8.6-5.59-1.37-11.39-1.81-17.09-2.5-3.35-.4-6.7-.76-10.05-1.09-1.62-.16-1.96-.19-3.58-.33-1.13-.1-2.26-.16-3.38-.25-.63-.05-1.25-.11-1.87-.16-.39-.03-.82-.08-1.17-.29Z"/>
      </g>
    </g>
  </g>
  <g>
    <g>
      <g>
        <path class="cls-4" d="M966.32,719.34c53.27-.12,95.87-3.35,126.03-6.51,10.38-1.09,32.71-3.58,61.12-8.75,37.55-6.83,56.02-12.93,64.21-15.79,7.01-2.45,18.51-6.47,31.05-12.63,11.82-5.81,48.68-24.45,77.89-65,21.57-29.94,29.01-58,33.95-77.37,9.87-38.71,8.33-69.51,6.84-95.26-3.34-57.63-18.6-97.88-22.89-108.68-.65-1.64-12.92-32.04-33.03-58.81-5.69-7.58-11.12-13.69-17.76-19.54-4.61-4.06-13.42-11.72-25.85-17.37-22.92-10.41-44.5-7.78-53.88-6.51-20.27,2.73-34.6,10.47-42.43,14.8-13.25,7.32-22.59,15.48-33.55,25.07-11.91,10.41-10.63,10.93-22.63,21.58-6.9,6.12-19.75,17.42-37.76,28.95-10.76,6.89-16.07,9.19-26.97,17.5-6.99,5.33-12.41,10.18-15.99,13.55,1.44-2.56,3.02-5.91,4.21-10,.85-2.92,1.32-5.59,1.58-7.89,2.44-16.17,7.71-37.6,19.6-60.39,5.1-9.78,10.59-18.22,15.92-25.39-18.14,4-35.84,7.66-55.26,10.89l-.05.86c-.02,2.15-.29,5.4-1.64,9.01-2.46,6.57-6.99,10.35-12.3,14.67-3.25,2.64-8.17,6.15-14.87,9.21,3.7-4.46,7.44-9.15,11.18-14.08,2.3-3.03,5.28-5.68,7.7-10.46,1.46-2.88,2.28-5.46,2.76-7.24l.24-1.06c-8.18,1.32-16.2,2.56-24.6,3.71-7.68,1.06-15.28,2.02-22.81,2.89h.3c-7.52-.87-15.13-1.84-22.81-2.89-7.68-1.06-15.27-2.18-22.77-3.38l.25.72c.48,1.78,1.3,4.35,2.76,7.24,2.42,4.78,5.4,7.43,7.7,10.46,3.75,4.93,7.49,9.62,11.18,14.08-6.69-3.06-11.62-6.57-14.87-9.21-5.31-4.32-9.84-8.1-12.3-14.67-1.35-3.61-1.62-6.86-1.64-9.01l.06-.71c-19.73-3.27-38.81-6.98-57.22-11.04,5.33,7.17,10.82,15.62,15.92,25.39,11.89,22.79,17.16,44.23,19.6,60.39.26,2.3.73,4.98,1.58,7.89,1.19,4.09,2.77,7.44,4.21,10-3.58-3.37-9-8.22-15.99-13.55-10.9-8.31-16.21-10.61-26.97-17.5-18.02-11.53-30.87-22.83-37.76-28.95-12-10.64-10.72-11.17-22.63-21.58-10.96-9.58-20.3-17.74-33.55-25.07-7.84-4.33-22.16-12.07-42.43-14.8-9.38-1.26-30.96-3.89-53.88,6.51-12.44,5.65-21.24,13.3-25.85,17.37-6.64,5.85-12.07,11.96-17.76,19.54-20.1,26.77-32.37,57.18-33.03,58.81-4.29,10.81-19.56,51.06-22.89,108.68-1.49,25.75-3.03,56.55,6.84,95.26,4.94,19.37,12.38,47.43,33.95,77.37,29.21,40.55,66.08,59.19,77.89,65,12.55,6.16,24.04,10.18,31.05,12.63,8.19,2.86,26.66,8.96,64.21,15.79,28.41,5.17,50.74,7.66,61.12,8.75,30.16,3.17,72.76,6.39,126.03,6.51"/>
        <g>
          <path class="cls-4" d="M965.58,241.56c-11.37-.13-22.7-1.42-34.02-2.56-14.46-1.46-28.89-3.23-43.27-5.33-12.76-1.86-25.48-3.97-38.16-6.34-8.7-1.62-17.37-3.37-26.02-5.23,0,0-77.64-15.62-141.71-51.71-4.53-2.55-8.1-5.04-10.66-6.97-5.25-3.96-12.31-9.65-14.61-16.05-4.07-11.38,7.02-21.16,14.73-27.61,11-9.21,22.94-17.17,35.39-24.28,1.7-.97,3.41-1.94,5.15-2.85,15.73-8.27,27.44-14.43,46.58-22.1,38.94-15.61,84.74-25.26,84.74-25.26,49.19-10.31,93.62-12.24,122.63-12.24h.14c29,0,73.5,1.91,122.76,12.24,0,0,45.79,9.65,84.74,25.26,19.14,7.67,30.85,13.83,46.58,22.1,1.73.91,3.44,1.88,5.15,2.85,12.45,7.1,24.39,15.07,35.39,24.28,7.71,6.45,18.8,16.23,14.73,27.61-2.29,6.4-9.36,12.09-14.61,16.05-2.56,1.93-6.13,4.42-10.66,6.97-64.07,36.09-141.71,51.71-141.71,51.71-5.35.66-10.74,2.27-16.03,3.31-5.84,1.15-11.69,2.25-17.55,3.3-12.97,2.31-25.98,4.36-39.04,6.15-14.64,2-29.32,3.68-44.04,5.02-4.62.42-9.23.88-13.85,1.26-4.26.35-8.51.47-12.76.42ZM967.45,185.91c29.23-.05,53.26-2.23,72.84-4.73,40.57-5.18,68.79-13.1,93.16-19.93,11.23-3.15,23.25-6.84,37.7-13.82,13.02-6.29,23.19-12.93,30.2-17.96,1.42-1.15,3.38-2.98,5.13-5.66,1.36-2.08,5.13-7.83,3.82-14.61-.78-4.04-3.13-7.19-4.34-8.82-1.03-1.38-2.02-2.43-2.76-3.16-7.4-6.42-14.05-10.64-18.68-13.29-10.32-5.89-20.18-9.38-36.45-15.13-3.75-1.33-6.83-2.37-8.82-3.03-28.99-8.71-63.62-16.71-103.09-21.25-25.15-2.89-48.52-3.95-69.67-3.88h-.2c-21.1-.06-44.4,1-69.47,3.88-39.47,4.54-74.1,12.54-103.09,21.25-1.98.66-5.06,1.7-8.82,3.03-16.27,5.75-26.13,9.24-36.45,15.13-4.63,2.65-11.28,6.87-18.68,13.29-.75.73-1.74,1.78-2.76,3.16-1.21,1.63-3.56,4.77-4.34,8.82-1.31,6.78,2.45,12.53,3.82,14.61,1.75,2.68,3.72,4.51,5.13,5.66,7.01,5.03,17.17,11.67,30.2,17.96,14.45,6.98,26.46,10.66,37.7,13.82,24.37,6.84,52.59,14.75,93.16,19.93,19.37,2.47,44.07,4.64,72.91,4.73h1.88Z"/>
          <g>
            <g>
              <path class="cls-4" d="M641.57,150.09c-6.75,4.35-11.98,11.64-13.4,19.57-.47,2.63-1.36,7.93,1.18,13.55,4.82,10.68,17.55,12.71,18.82,12.89-4.95.05-9.08-.29-12.11-.66-9.17-1.11-12.26-2.88-13.16-3.42-2.53-1.53-4.87-3.27-6.22-5.98-3.99-7.96,1.11-16.98,6.89-22.51,5.36-5.12,11.78-9.44,18-13.45Z"/>
              <path class="cls-4" d="M604.89,189.14c-14.39,11.34-24.89,22.26-31.97,30.39,0,0-31.39,36.67-47.96,89.21-1.23,3.9-2.35,8.54-2.96,13.82-1.3,11.14.16,20.55,1.78,27.04.55,2.38,2.11,4.36,4.14,4.93,3.03.86,6.99-1.42,8.09-5.72,4.54-8.91,11.48-22.26,20.33-38.29,18.86-34.14,29.22-52.71,45.99-73.81,7.14-8.98,18.11-21.8,33.35-35.92-5.2,1.84-12.43,4.87-20.33,9.87-4.76,3.01-9.13,6.33-14.21,10.86-16.95,15.1-29.04,32.24-34.14,39.87-5.83,8.72-13.09,20.81-19.93,36.12,2.62-10.29,6.92-22.83,14.21-36.12,14.8-26.96,34.54-43.57,47.17-52.5-5.96,2.92-14.57,7.87-23.29,15.99-3.8,3.53-6.27,6.41-8.88,9.47-15.44,18.1-23.88,35.56-29.21,46.58-1.93,3.99-4.22,9.01-6.51,15.39-1.56,4.36-3.04,8.47-4.14,13.82-.96,4.63-1.89,11.44-1.38,19.93-1.34-4.56-2.77-11.5-2.17-19.93.4-5.57,1.57-10.25,2.76-13.82,4.31-10.86,9.56-22.4,15.99-34.34,16.69-31.01,36.1-55.01,53.29-72.83Z"/>
              <path class="cls-4" d="M506.14,334.6c-2.75,11.44-3.38,21.09-3.42,27.89-.04,7.25.57,16.81,4.47,25.92,1.04,2.42,3.46,7.5,8.42,10.39,2.47,1.44,4.41,1.66,5.13,1.71,0,0,3.2.23,6.84-1.71,4.64-2.47,10.54-11.95,14.61-25.66-2.16,8.16-4.08,17.5-5.26,27.89-.68,5.95-1.04,11.58-1.18,16.84-2.35.89-5.85,2.19-10.13,3.68-12.69,4.44-16.01,4.94-18.55,5.13-5.04.39-9.35.72-13.42-1.97-5.22-3.46-6.52-9.55-6.84-11.45-.73,1.3-1.61,3.22-2.11,5.66-.67,3.3-.34,6.08,0,7.76-1.02-3.19-2.23-7.96-2.5-13.82-.29-6.26.61-11.06,1.32-14.47,4.16-20.05,11.24-38.03,11.97-39.87,2.48-6.22,5.97-14.44,10.66-23.95Z"/>
              <path class="cls-4" d="M535.68,459.01c-1.97-1.32-3.95-2.63-5.92-3.95-8.48,1.81-14.98,4.52-19.21,6.58-8.47,4.12-26.8,14.83-37.37,36.32-2.47,5.02-3.63,8.84-5.33,14.41-1.02,3.35-5.61,18.89-5.92,41.05-.28,20.15,3.09,37.88,7.3,52.1.54-9.56,2.17-21.84,6.51-35.53,6.01-18.95,14.84-33.16,21.71-42.43.36-.65,3.76-6.56,10.86-7.5,1.34-.18,7.02-1,11.05,3.16,3.61,3.72,3.23,8.67,3.16,9.47.07,5.11.46,11.41,1.58,18.55,1.17,7.44,2.73,13.15,3.55,15.99,1.95,6.7,5.05,17.06,12.43,28.42,2.63,4.05,5.13,7.19,6.91,9.28.23.29.69.93.79,1.84.04.34.15,1.38-.39,1.87-.73.66-2.27.05-2.66-.1-1.61-.6-4.79-.63-11.15-.69-5.07-.05-9.06,3.38-12.86,6.64-13.49,11.58-16.96,29.71-18.75,39.08-.94,4.94-1.21,8.36-1.78,15.2-1.07,13.09-2.31,28.19.99,46.18,1.21,6.59,3.41,15.63,7.7,26.05.04.16.49,2,2.3,2.7,1.83.71,3.41-.38,3.62-.53,1.16-.83,1.49-2.02,1.58-2.37.31-1.91.73-4.83,1.05-8.42.78-8.76.2-13.04.53-19.21.36-6.72,1.58-11.52,3.03-17.24,1.93-7.6,6.04-20.15,15.39-34.6-1.17,2.52-2.62,5.86-4.08,9.87-1.28,3.53-3.69,10.25-5.26,19.21-1.77,10.08-1.59,17.94-1.45,22.89.07,2.34.35,9.92,2.11,19.74,1.51,8.44,3.59,15.59,5.53,21.18-1.47-9.75-2.03-18.14-2.24-24.6-.2-6.36-.35-20.58,2.37-38.55,1.05-6.96,2.03-13.43,4.61-21.97,3.12-10.36,7.01-18.59,10.13-24.34.46-.79,1.27-1.98,2.6-3.06.67-.55,2.63-2.09,5.62-2.37,3.05-.28,5.32.91,6.12,1.38,3.83,2.26,8.43,5.42,13.12,9.77,5.29,4.9,9.09,9.82,11.74,13.82.73,1.43,1.49,3.29,1.97,5.53,1.08,5,.19,9.23-.49,11.55-1.57,3.44-3.78,8.36-6.32,14.31-4.55,10.69-8.93,21.82-10.92,27.5-7.63,21.74-8.39,40.42-8.95,50.79-.59,11.03-.06,17.65.39,21.71.8,7.05,1.72,14.72,5.66,23.68,3.38,7.69,7.63,13.25,10.66,16.71-2.8-6.65-5.53-14.97-7.11-24.74-3.68-22.85.85-41.83,4.47-52.76-1.95,12.34-2.88,29.33,1.45,48.55,2.12,9.44,5.33,23.08,15.53,37.63,8.02,11.44,17.11,18.81,23.42,23.16-3.63-10.7-6.83-23.08-8.75-36.97-6.15-44.59,4.2-81.73,12.63-103.81.92-2.43,2.53-5.91,5.36-9.51,1.78-2.26,3.93-4.99,7.7-7.17,6.35-3.68,12.75-3.15,15.39-2.89,2.85.27,5.11.92,7.57,1.78,4.58,1.59,12.56,4.36,21.18,10.59,12.28,8.88,19.17,19.98,22.43,26.12-3.66-3.93-8.64-8.58-15.13-13.03-4.21-2.89-9.96-6.79-18.42-9.74-4.7-1.64-11.72-3.49-20.53-3.75,3.58.93,8.6,2.41,14.41,4.74,6.35,2.54,13.7,5.49,21.51,11.45,4.12,3.14,10.05,8.41,15.59,16.58-2.46,5.15-4.87,10.75-7.11,16.78-5.57,15.01-8.7,28.99-10.46,41.05-1.46,13.28-1.6,24.29-1.38,32.37.21,7.94.79,13.61,1.58,18.75,1.44,9.34,3.31,14.95,4.34,17.76,2,5.48,3.25,8.79,6.32,12.24,3.93,4.42,8.58,6.5,11.45,7.5-2.94-4.5-5.71-9.55-8.09-15.2-13.65-32.37-5.87-64.18-.99-79.14-1.96,10.59-5.89,39.7,8.95,71.38,11.39,24.32,28.42,38.55,37.3,45-2.71-14.32-4.69-30.93-4.8-49.41-.27-44.4,10.35-80.65,20-105,1.57-2.9,4.27-6.89,8.75-10.33,10.97-8.43,23.86-6.78,26.84-6.32,24.35,3.96,50.38,7.37,77.96,9.87,34.82,3.16,67.55,4.47,97.82,4.54v-16.78c-33.36.39-61.79-.86-83.75-2.37-38.2-2.63-71.16-5.04-112.89-15-23.75-5.67-47.36-11.31-76.58-24.87-22.7-10.54-62.21-29.38-97.89-70.66,0,0-33.56-38.83-49.74-88.03-4.66-14.17-6.32-24.8-6.32-24.8-1.96-12.6-2.95-18.89-2.57-26.84.1-2.05.27-4.03-.39-6.71-2.17-8.73-10.47-13.58-12.04-14.41-10.25-5.37-31.24,5.23-49.24,28.12,2.91-6.14,7.91-14.63,16.38-22.6,16.86-15.86,36.44-19.28,44.21-20.2Z"/>
            </g>
            <g>
              <path class="cls-4" d="M1291.38,150.09c6.75,4.35,11.98,11.64,13.4,19.57.47,2.63,1.36,7.93-1.18,13.55-4.82,10.68-17.55,12.71-18.82,12.89,4.95.05,9.08-.29,12.11-.66,9.17-1.11,12.26-2.88,13.16-3.42,2.53-1.53,4.87-3.27,6.22-5.98,3.99-7.96-1.11-16.98-6.89-22.51-5.36-5.12-11.78-9.44-18-13.45Z"/>
              <path class="cls-4" d="M1328.06,189.14c14.39,11.34,24.89,22.26,31.97,30.39,0,0,31.39,36.67,47.96,89.21,1.23,3.9,2.35,8.54,2.96,13.82,1.3,11.14-.16,20.55-1.78,27.04-.55,2.38-2.11,4.36-4.14,4.93-3.03.86-6.99-1.42-8.09-5.72-4.54-8.91-11.48-22.26-20.33-38.29-18.86-34.14-29.22-52.71-45.99-73.81-7.14-8.98-18.11-21.8-33.35-35.92,5.2,1.84,12.43,4.87,20.33,9.87,4.76,3.01,9.13,6.33,14.21,10.86,16.95,15.1,29.04,32.24,34.14,39.87,5.83,8.72,13.09,20.81,19.93,36.12-2.62-10.29-6.92-22.83-14.21-36.12-14.8-26.96-34.54-43.57-47.17-52.5,5.96,2.92,14.57,7.87,23.29,15.99,3.8,3.53,6.27,6.41,8.88,9.47,15.44,18.1,23.88,35.56,29.21,46.58,1.93,3.99,4.22,9.01,6.51,15.39,1.56,4.36,3.04,8.47,4.14,13.82.96,4.63,1.89,11.44,1.38,19.93,1.34-4.56,2.77-11.5,2.17-19.93-.4-5.57-1.57-10.25-2.76-13.82-4.31-10.86-9.56-22.4-15.99-34.34-16.69-31.01-36.1-55.01-53.29-72.83Z"/>
              <path class="cls-4" d="M1426.81,334.6c2.75,11.44,3.38,21.09,3.42,27.89.04,7.25-.57,16.81-4.47,25.92-1.04,2.42-3.46,7.5-8.42,10.39-2.47,1.44-4.41,1.66-5.13,1.71,0,0-3.2.23-6.84-1.71-4.64-2.47-10.54-11.95-14.61-25.66,2.16,8.16,4.08,17.5,5.26,27.89.68,5.95,1.04,11.58,1.18,16.84,2.35.89,5.85,2.19,10.13,3.68,12.69,4.44,16.01,4.94,18.55,5.13,5.04.39,9.35.72,13.42-1.97,5.22-3.46,6.52-9.55,6.84-11.45.73,1.3,1.61,3.22,2.11,5.66.67,3.3.34,6.08,0,7.76,1.02-3.19,2.23-7.96,2.5-13.82.29-6.26-.61-11.06-1.32-14.47-4.16-20.05-11.24-38.03-11.97-39.87-2.48-6.22-5.97-14.44-10.66-23.95Z"/>
              <path class="cls-4" d="M1397.27,459.01c1.97-1.32,3.95-2.63,5.92-3.95,8.48,1.81,14.98,4.52,19.21,6.58,8.47,4.12,26.8,14.83,37.37,36.32,2.47,5.02,3.63,8.84,5.33,14.41,1.02,3.35,5.61,18.89,5.92,41.05.28,20.15-3.09,37.88-7.3,52.1-.54-9.56-2.17-21.84-6.51-35.53-6.01-18.95-14.84-33.16-21.71-42.43-.36-.65-3.76-6.56-10.86-7.5-1.34-.18-7.02-1-11.05,3.16-3.61,3.72-3.23,8.67-3.16,9.47-.07,5.11-.46,11.41-1.58,18.55-1.17,7.44-2.73,13.15-3.55,15.99-1.95,6.7-5.05,17.06-12.43,28.42-2.63,4.05-5.13,7.19-6.91,9.28-.23.29-.69.93-.79,1.84-.04.34-.15,1.38.39,1.87.73.66,2.27.05,2.66-.1,1.61-.6,4.79-.63,11.15-.69,5.07-.05,9.06,3.38,12.86,6.64,13.49,11.58,16.96,29.71,18.75,39.08.94,4.94,1.21,8.36,1.78,15.2,1.07,13.09,2.31,28.19-.99,46.18-1.21,6.59-3.41,15.63-7.7,26.05-.04.16-.49,2-2.3,2.7-1.83.71-3.41-.38-3.62-.53-1.16-.83-1.49-2.02-1.58-2.37-.31-1.91-.73-4.83-1.05-8.42-.78-8.76-.2-13.04-.53-19.21-.36-6.72-1.58-11.52-3.03-17.24-1.93-7.6-6.04-20.15-15.39-34.6,1.17,2.52,2.62,5.86,4.08,9.87,1.28,3.53,3.69,10.25,5.26,19.21,1.77,10.08,1.59,17.94,1.45,22.89-.07,2.34-.35,9.92-2.11,19.74-1.51,8.44-3.59,15.59-5.53,21.18,1.47-9.75,2.03-18.14,2.24-24.6.2-6.36.35-20.58-2.37-38.55-1.05-6.96-2.03-13.43-4.61-21.97-3.12-10.36-7.01-18.59-10.13-24.34-.46-.79-1.27-1.98-2.6-3.06-.67-.55-2.63-2.09-5.62-2.37-3.05-.28-5.32.91-6.12,1.38-3.83,2.26-8.43,5.42-13.12,9.77-5.29,4.9-9.09,9.82-11.74,13.82-.73,1.43-1.49,3.29-1.97,5.53-1.08,5-.19,9.23.49,11.55,1.57,3.44,3.78,8.36,6.32,14.31,4.55,10.69,8.93,21.82,10.92,27.5,7.63,21.74,8.39,40.42,8.95,50.79.59,11.03.06,17.65-.39,21.71-.8,7.05-1.72,14.72-5.66,23.68-3.38,7.69-7.63,13.25-10.66,16.71,2.8-6.65,5.53-14.97,7.11-24.74,3.68-22.85-.85-41.83-4.47-52.76,1.95,12.34,2.88,29.33-1.45,48.55-2.12,9.44-5.33,23.08-15.53,37.63-8.02,11.44-17.11,18.81-23.42,23.16,3.63-10.7,6.83-23.08,8.75-36.97,6.15-44.59-4.2-81.73-12.63-103.81-.92-2.43-2.53-5.91-5.36-9.51-1.78-2.26-3.93-4.99-7.7-7.17-6.35-3.68-12.75-3.15-15.39-2.89-2.85.27-5.11.92-7.57,1.78-4.58,1.59-12.56,4.36-21.18,10.59-12.28,8.88-19.17,19.98-22.43,26.12,3.66-3.93,8.64-8.58,15.13-13.03,4.21-2.89,9.96-6.79,18.42-9.74,4.7-1.64,11.72-3.49,20.53-3.75-3.58.93-8.6,2.41-14.41,4.74-6.35,2.54-13.7,5.49-21.51,11.45-4.12,3.14-10.05,8.41-15.59,16.58,2.46,5.15,4.87,10.75,7.11,16.78,5.57,15.01,8.7,28.99,10.46,41.05,1.46,13.28,1.6,24.29,1.38,32.37-.21,7.94-.79,13.61-1.58,18.75-1.44,9.34-3.31,14.95-4.34,17.76-2,5.48-3.25,8.79-6.32,12.24-3.93,4.42-8.58,6.5-11.45,7.5,2.94-4.5,5.71-9.55,8.09-15.2,13.65-32.37,5.87-64.18.99-79.14,1.96,10.59,5.89,39.7-8.95,71.38-11.39,24.32-28.42,38.55-37.3,45,2.71-14.32,4.69-30.93,4.8-49.41.27-44.4-10.35-80.65-20-105-1.57-2.9-4.27-6.89-8.75-10.33-10.97-8.43-23.86-6.78-26.84-6.32-24.35,3.96-50.38,7.37-77.96,9.87-34.82,3.16-67.55,4.47-97.82,4.54,0-5.59,0-11.18,0-16.78,33.36.39,61.79-.86,83.75-2.37,38.2-2.63,71.16-5.04,112.89-15,23.75-5.67,47.36-11.31,76.58-24.87,22.7-10.54,62.21-29.38,97.89-70.66,0,0,33.56-38.83,49.74-88.03,4.66-14.17,6.32-24.8,6.32-24.8,1.96-12.6,2.95-18.89,2.57-26.84-.1-2.05-.27-4.03.39-6.71,2.17-8.73,10.47-13.58,12.04-14.41,10.25-5.37,31.24,5.23,49.24,28.12-2.91-6.14-7.91-14.63-16.38-22.6-16.86-15.86-36.44-19.28-44.21-20.2Z"/>
            </g>
          </g>
          <g>
            <path class="cls-4" d="M601.48,882.61c7.55,10.22,16.6,21.29,27.37,32.63,12.14,12.78,24.08,23.39,35,32.1-10.63-5.63-26.03-15.46-40.53-31.84-10.56-11.94-17.42-23.72-21.84-32.89Z"/>
            <path class="cls-4" d="M633.72,932.61c20.43,16.09,51.58,37.44,93.42,54.74,20.48,8.47,36.71,13.15,55.92,18.68,21.46,6.19,61.45,16.74,113.29,24.08,35.91,5.08,81.37,9.16,134.21,8.29-43.02,5.35-79.73,5.36-107.37,3.95-68.81-3.51-118.8-17.72-131.05-21.32-25.56-7.51-54.39-16.18-88.81-35.92-31.21-17.9-54.24-37.56-69.6-52.5Z"/>
            <path class="cls-4" d="M1107.53,1024.97c23.21-6.71,48.59-15.42,75.39-26.84,40.97-17.46,75.58-37.11,103.81-55.66-18.57,14.79-42.57,31.32-72.24,46.18-40.74,20.42-78.32,30.79-106.97,36.32Z"/>
          </g>
        </g>
      </g>
      <g>
        <path class="cls-4" d="M766.67,114.26c2.86-5.64,8.21-14.39,17.63-22.37,12.91-10.94,26.44-14.5,33.16-15.79-4.22-.1-18.71.08-32.37,10.53-13.22,10.11-17.32,23.47-18.42,27.63Z"/>
        <path class="cls-4" d="M815.75,82.16c-3.5,1.35-9.82,4.32-15.66,10.53-5.44,5.78-8.01,11.78-9.21,15.26,5.79-6.11,14.72-14.14,27.24-20.92,16.44-8.91,31.71-11.68,41.18-12.63-6.7,1.79-15.66,4.93-25.26,10.66-10.68,6.37-18.25,13.6-23.16,19.08-1.16,1.38-3.6,4.65-4.21,9.47-.23,1.79-.6,6.94,2.5,11.58,1.83,2.73,4.12,4.17,5.26,4.87,17.45,10.58,28.68,13.03,28.68,13.03,46.62,10.17,69.6,11.97,69.6,11.97,28.53,0,50.45,2.58,65,2.37,20.47-.3,34.67-1.51,38.49-1.84,20.99-1.85,34.43-4.43,48.82-7.24,12.37-2.42,21.45-4.64,31.97-9.87,0,0,4.76-1.77,12.89-7.63.75-.54,2.09-1.54,3.16-3.29,1.59-2.6,1.58-5.24,1.58-6.58-.02-7.83-8.24-16.75-8.82-17.37,4.63,1.9,10.71,5.34,15.53,11.58,2.6,3.38,5.39,6.99,5.39,12.11,0,7.9-6.64,13.1-7.76,13.95-3.29,1.72-8.04,4.03-13.95,6.32-10.25,3.96-18.53,5.72-24.08,6.84-31.48,6.34-47.25,9.39-67.89,11.32-50.34,4.69-97.6.3-118.68-2.11-3.82-.5-9.01-1.23-15.13-2.24-9.05-1.49-19.89-3.3-33.45-6.81-6.58-1.7-19.45-5.26-33.75-11.15-2.62-1.08-6.69-2.81-11.64-5.62-5.75-3.27-11.67-7.12-16.25-11.95-2.47-2.6-4.27-6.01-4.66-9.65-.66-6.2,2.31-13.1,6.17-17.84,3.19-3.92,7.38-6.95,11.79-9.37,3.76-2.06,7.74-3.7,11.81-5.03,2.11-.69,4.45-1,6.5-1.79Z"/>
        <path class="cls-4" d="M1085.45,98.51c2.62.44,7.43,1.69,11.55,5.62,1.81,1.74,4.61,4.42,4.93,8.59.06.78.36,4.71-2.27,7.2-3.1,2.94-8.56,2.28-11.55.39-5.03-3.18-6.71-12.21-2.66-21.81Z"/>
        <path class="cls-4" d="M881.18,91.21c-5.85-.19-14.16.62-21.97,5.52-3.4,2.13-11.19,7.02-11.05,13.82.08,4.08,2.98,7.13,5.03,9.28,5.24,5.49,11.54,7.38,15.1,8.39,13.03,3.71,25.53,6.04,35.13,7.5-13.46.8-32.39.22-53.68-6.22-8.74-2.64-16.42-5.84-23.02-9.09-2.79-1.37-5.17-3.53-6.55-6.32-.82-1.66-1.38-3.69-1.22-6.01.28-3.88,2.43-6.49,3.26-7.4,2.81-2.69,7.07-6.32,12.83-9.67,6.38-3.71,12.34-5.77,26.15-9.08,7.39-1.77,16.57-3.79,27.28-5.74l.3-.09c12.81-11.99,41.65-19.95,76.85-19.95,47.89,0,84,14.75,84,34.31s-36.11,34.31-84,34.31-83.09-14.38-83.99-33.57l-.44.03Z"/>
        <path class="cls-3" d="M1042.3,90.45c0,12.65-31.5,26.74-76.7,26.74s-76.7-14.09-76.7-26.74,31.5-26.74,76.7-26.74,76.7,14.09,76.7,26.74Z"/>
        <g>
          <path class="cls-4" d="M965.6,113.68c-34.97,0-70.37-7.98-70.37-23.23s35.4-23.23,70.37-23.23,70.37,7.98,70.37,23.23-35.4,23.23-70.37,23.23ZM965.6,75.38c-40.45,0-61.6,9.81-61.6,15.08s21.16,15.08,61.6,15.08,61.6-9.81,61.6-15.08-21.16-15.08-61.6-15.08Z"/>
          <path class="cls-4" d="M953.66,101.8c-7.11-.16-14.5-1.1-20.77-4.76-5.47-3.27-5.84-8.86-.49-12.54,12.2-8.09,36.3-7.72,50.46-5.42,5.71,1.1,11.43,2.42,16.27,5.99,7.25,5.86,1.11,11.75-5.41,13.89-5.43,1.97-11.08,2.68-16.69,2.9,5.43-1.11,10.92-2.41,15.95-4.69,11.52-5.29,6.79-10.17-2.67-13.31-7.85-2.51-16.18-3.38-24.43-3.43-24.45,0-55.97,11.17-12.21,21.37h0Z"/>
          <ellipse class="cls-4" cx="965.6" cy="90.45" rx="16.74" ry="5.24"/>
        </g>
      </g>
    </g>
    <g>
      <path class="cls-4" d="M972.83,827.3c.04-.24,3.48-1.03,3.92-1.16,1.44-.44,2.87-.88,4.31-1.31,2.93-.88,5.88-1.7,8.89-2.29,5.27-1.03,11.77-1.69,16.88.39,1.17.48,2.51,1.39,2.77,2.71.22,1.11-.42,2.23-1.28,2.97-3.19,2.77-7.52,2.97-11.45,3.78-5.14,1.06-10.31,2.01-15.49,2.86-8.6,1.41-8.7,1.24-9,10.04-.16,4.83-.03,9.67-.03,15.02,8.72-1.17,17.16-2.21,25.57-3.45,13.14-1.93,26.23-4.24,39.41-5.93,7.04-.9,14.2.32,20.55,3.5,2.45,1.23,4.94,2.56,6.87,4.55,1.23,1.28,2.19,2.84,2.79,4.51.47,1.31,1.19,3.7.43,5.01-.84,1.46-3.07,1.81-4.57,1.99-1.92.23-3.86.1-5.78-.04-2.64,0-5.33-.37-7.97-.55s-5.24-.3-7.86-.48c-7.61-.52-15.22-1.05-22.84-1.44-7.18-.37-14.4-.06-21.56-.06.12,0,.8,1.1.91,1.24.39.49.8.98,1.19,1.48.73.95,1.48,2.01,1.68,3.21.35,2.14-1.24,4.16-2.52,5.69-1.55,1.86-3.02,3.77-4.51,5.68-2.31,2.94-4.63,5.87-6.96,8.79-.85,1.07-1.7,2.14-2.55,3.21-.45.56-.9,1.13-1.34,1.69-.26.33-.91,1.51-1.29,1.63,3.63-1.09,7.27-2.18,10.9-3.27,3.44-1.03,6.69-2.13,10.34-1.64,2.41.32,4.68,1.26,6.8,2.41,1.34.73,3.08,1.73,2.82,3.56-.08.54-.41,1.01-.78,1.42-2.21,2.45-5.46,2.7-8.5,3.33-3.98.82-7.98,1.58-11.98,2.32-1.88.35-3.76.69-5.64,1.03-4.05.74-8.15,1.25-13.15,2,6.74,4.4,4.77,9.85,3.07,15.4-.63,2.05-.59,4.3-.94,7.21,7.45-.99,14.4-1.78,21.31-2.86,6.69-1.05,13.3-2.7,20.01-3.55,8.23-1.05,18.1.73,23.66,7.51.45.55.84,1.14,1.13,1.78.51,1.12.7,2.42.38,3.6-.97,3.55-5.17,3.95-8.25,3.86-5.42-.16-10.83-.55-16.24-.82-4.2-.21-8.39-.4-12.59-.51-9.57-.25-19.15-.05-29.53-.05,0,7.05.31,13.92-.07,20.75-.58,10.28-1.42,20.57-2.66,30.79-.31,2.58-1.37,5-2.5,7.31-.87,1.77-1.8,3.83-3.79,4.57-.37.14-.78.22-1.17.15-2.16-.35-2.55-3.6-2.69-5.27-.2-2.36-.41-4.73-.59-7.09-.36-4.65-.63-9.3-.72-13.96-.23-11.91-.06-23.82-.06-36.68-8.43.89-16.31,1.43-24.08,2.62-7.99,1.23-15.85,3.21-23.81,4.66-6.93,1.27-12.92-.52-18.8-4.31-1.48-.95-.89-3.26.86-3.44,22.32-2.32,43.86-4.56,66.58-6.92-.11.01-2.92-16.64-3.2-18.18-.27-1.46-.7-2.63-2.12-3.29-1.77-.82-3.61-.71-5.51-.74-4.42-.07-8.84-.08-13.26-.02-.51,0-1.03,0-1.54,0-2.39-.02-4.79-.25-7.1-.88-1.17-.31-2.3-.72-3.4-1.23-.84-.4-2.04-.81-2.62-1.58-.15-.2-.26-.44-.31-.69-.16-.72.08-1.5.58-2.04.97-1.04,2.58-.83,3.86-.92,2.58-.19,5.15-.36,7.73-.52,1.34-.09,2.67-.17,4.01-.26s2.63-.26,3.93-.26c1.58-.11,3.16-.22,4.74-.34s3.11-.38,4.65-.38c6.28-.55,12.53-1.48,18.76-2.43,1.13-.17,2.65-1.02,3.1-1.97,3.56-7.54,7.34-15.02,10.19-22.84,2.25-6.16-1.13-9.92-7.55-9.25-23.12,2.43-46.24,4.88-69.33,7.53-4.23.48-8.41,1.65-12.51,2.88-4.73,1.41-9.74,1.74-14.58.77-2.42-.49-4.8-1.21-7.09-2.14-1.14-.46-2.25-.98-3.34-1.56-.54-.28-1.07-.58-1.59-.89-.45-.27-1.01-.53-1.35-.92-.52-.61-.55-1.54-.22-2.24.61-1.32,2.17-1.34,3.43-1.46,5.27-.33,10.54-1,15.79-1.49s10.91-1.02,16.36-1.53c5.15-.48,10.31-.96,15.46-1.45,6.62-.62,13.24-1.24,19.87-1.87,3.35-.32,6.7-.64,10.05-.96,2.96-.28,6.34-.17,9.21-.95,1-.27,2.91-1.19,2.96-2.45.27-6.9.15-13.81.15-21.01,0,.45-18.15,1.16-19.85,1.07-3.3-.18-6.58-.76-9.66-1.97-1.44-.56-2.64-1.28-3.7-2.16-1.39-1.15-.69-3.42,1.11-3.58h.04c1.6-.15,3.2-.29,4.79-.43,3.06-.27,6.11-.54,9.17-.81,6.16-.55,12.32-1.09,18.48-1.64-1.04-13.35,2.58-26.85-6.09-38.75-2.34-3.2-.78-5.64,3.38-5.62,6.99.02,13.43,3.31,18.61,7.82,1.97,1.72,1.58,4.27,1.21,6.62-.42,2.68-.8,5.37-1.18,8.07-.95,6.61-1.98,13.2-2.97,19.8Z"/>
      <path class="cls-4" d="M957.48,892.49c-1.26,2.2-2.22,4.65-3.85,6.53-3.19,3.69-5.96,3.57-8.26-.67-3.41-6.28-6.34-12.83-9.2-19.39-.34-.77.94-3.23,1.69-3.34,8.63-1.2,18.93,7.9,19.61,16.87Z"/>
    </g>
  </g>
  <g>
    <g>
      <g>
        <path class="cls-3" d="M908.42,358.49c6.57,3.98,20.23,13.58,28.42,31.38,3.66,7.94,10.22,22.2,5.13,39.08-5.53,18.35-21,27.07-24.67,29.01,2.19,1.98,5.18,4.2,9.08,5.92,3.2,1.41,15.69,7.12,26.05.99,6.47-3.83,9.35-10.64,10.33-12.96.77-1.82,1.36-3.72,2.04-7.24.98-5.04,1.97-12.44,1.67-21.91v39.8c-4.27,7.19-9.5,9.85-11.87,10.82-11.68,4.81-27.51-.84-38.29-14.8-1.4.62-2.92,1.23-4.54,1.79-4.1,1.42-7.93,2.22-11.25,2.66,2.42,1.05,6.2,3.06,9.74,6.76,0,0,5.34,5.6,7.55,14.11,4.23,16.33-7.87,31.63-11.76,36.64-3.34,4.3-9.41,10.92-19.34,16.45,4.34-4.16,12.63-13.23,17.24-27.5,4.17-12.92,3.35-24.02,2.5-29.87-2.91,12.55-9.29,31.77-24.28,50.33-13.06,16.18-27.15,25.04-35.39,30.13-6.33,3.91-16.7,10.21-31.84,14.74-13.65,4.08-25.6,5.05-34.08,5.13,11.03-1.52,27.27-5.12,44.87-14.34,13.37-7.01,23.41-15.11,30.39-21.71-7.24,4.32-17.73,9.96-30.99,15-40.47,15.39-74.97,13.2-84.08,12.43-19.11-1.6-39.82-3.34-62.37-16.97-33.7-20.38-46.23-52.05-48.95-59.41-9.02-24.49-7.25-45.79-6.51-53.68,1.46-15.51,5.68-28.47,8.88-38.29,4.04-12.4,8.48-22.49,12.04-29.8,3.69-5.5,9.01-11.78,16.58-17.17,26.66-18.97,58.9-10.95,65.13-9.28-5.78-2.4-12.82-4.65-20.99-5.95-23.57-3.76-43.02,2.56-53.19,6.81,6.22-3.96,16.47-9.42,30.2-12.24,12.19-2.5,22.57-1.98,29.51-1.09-8.83-1.16-18.5-2.92-28.82-5.53-6.58-1.66-12.73-3.5-18.45-5.43,7.12,0,14.85.31,23.09,1.09,6.4.6,12.43,1.42,18.06,2.37-6.31-3.42-16.71-8.02-30.3-9.61-17.68-2.06-31.78,2.03-39.08,4.74,5.18-3.29,13.45-7.65,24.41-10,13.69-2.93,25.13-1.35,31.64.07-4.25-2.25-11.22-5.25-20.23-6.09-16.18-1.5-28.29,4.99-33.55,7.89-19.43,10.74-27.51,28.51-30,34.74,1.91-8.3,5.64-20.38,13.39-33.35,5.09-8.52,11.6-19.42,24.28-28.42,5.96-4.23,25.96-17.04,52.6-13.12,20.46,3.01,33.83,14.28,38.98,19.14-3.83-4.71-10.81-12.01-21.61-17.37,0,0-18.36-9.11-41.25-5.72-42.15,6.25-62.81,53.41-64.05,56.35,2.09-6.28,5.75-15.22,12.24-24.77,4.84-7.13,14.61-21.14,32.96-30.49,7.14-3.64,29.06-14.81,53.19-6.51,10.2,3.51,17.36,9.31,21.61,13.42-2.57-3.15-6.64-7.45-12.53-11.25-15.48-9.98-31.71-8.85-38.39-8.39-30.36,2.11-50.05,24.09-54.57,29.41,1.92-3.39,4.78-7.84,8.88-12.53,1.32-1.51,11.11-12.52,25.56-19.14,25.23-11.57,51.11-3.58,56.55-1.78,3.44,1.57,8.26,4.04,13.59,7.73,13.74,9.52,21.42,20.67,28.22,31.38,14.04,22.1,25.05,43.38,32.96,60.07-1.75-11.66-4.86-25.91-10.53-41.58-5.57-15.41-12.15-28.17-18.16-38.16,6.53,7.7,13.58,17.35,20,29.08,13.52,24.69,18.46,48,20.39,64.08-.11-12.93-1.88-31.08-9.34-51.18-3.72-10.03-8.12-18.54-12.37-25.53,11.18,9.41,23.71,21.53,35.99,36.84,20.44,25.5,32.7,50.54,40.13,69.6-2.03-10.64-5.83-24.7-13.29-40.07-6.77-13.94-14.52-24.78-21.05-32.63-.56-.67,9.43,8.09,17.17,18.42,7.39,9.86,12.16,18.99,15.13,25.53,1.12,3.2,2.76,8.02,4.61,13.95,2.91,9.31,3.2,11.32,5,15.66,2.63,6.34,4.77,11.49,9.47,15.92,1.63,1.53,11.33,10.28,23.68,7.89,11.99-2.32,17.73-13.43,18.95-15.79,6.97-13.49,3.5-31.63-8.12-46.71Z"/>
        <path class="cls-3" d="M732.37,254.75c3.26,2.31,7.04,5.37,10.86,9.37,4.34,4.54,7.5,9.01,9.77,12.73-.9-3.17-3.4-10.27-10.16-16.09-3.85-3.31-7.75-5.07-10.46-6.02Z"/>
        <path class="cls-3" d="M942.63,526.85c-2.11-.73-5.36-1.6-9.34-1.58-5.44.03-9.49,1.69-11.71,2.63-7.55,3.2-23.19,13.24-42.37,28.55,5.21-5.81,11.21-12.5,19.6-21.84,5.15-5.74,8.4-9.36,14.21-12.5,4.19-2.27,10.42-5.64,17.76-3.82,6.6,1.64,10.46,6.58,11.84,8.55Z"/>
        <path class="cls-3" d="M920.66,509.61c2.14-.76,6.1-1.83,10.92-1.05,9.13,1.47,14.12,8.4,15.13,9.87-.2-1.1-1.44-7.35-7.11-10.79-5.6-3.4-13.24-2.67-18.95,1.97Z"/>
        <path class="cls-3" d="M923.42,501.32c2.49-.92,7.24-2.3,13.16-1.58,3.27.4,8.5,1.03,12.89,5.26,4.81,4.63,5.51,10.59,5.66,12.5,1.74-7.22-.37-14.66-5.53-18.95-6.96-5.79-18.63-5.1-26.18,2.76Z"/>
        <path class="cls-3" d="M958.29,501.06c-.47-2.11-4.07-4.9-5.67-6.25-4.42-3.74-9.88-6.06-15.55-7.08-3.99-.72-9.6.46-12.8-2.54-1.75-1.64-1.98-3.84-.58-5.83,2.71-3.85,15.24-2.31,23.55,3.82,7.66,5.64,10.18,14.03,11.05,17.89Z"/>
        <path class="cls-3" d="M635.53,379.09c-5.42,11.03-12.23,27.94-15.26,49.47-1.8,12.73-5.58,41.93,6.32,72.63,18.79,48.49,64.37,68.89,75.26,73.42-8.16-2.06-55.07-14.71-79.47-60.53-22.22-41.71-17.02-94.46,13.16-135Z"/>
        <path class="cls-3" d="M931.58,585.99c-3.34-3.96-10.48-11.2-21.84-14.47-17.85-5.15-35.04,2.66-44.47,11.84-6.72,6.54-8.55,12.86-8.95,14.34-.82,3.05-2.79,10.39,1.32,16.58.72,1.08,3.37,5.08,8.42,6.05,4.52.87,9.8-.72,12.5-4.61,2.23-3.21,2.36-7.44,1.4-11.11-1.08-4.16-1.78-8.46.27-12.45,1.5-2.93,4.01-5.22,6.75-6.98,5.69-3.67,12.74-5.56,19.47-5.9,11.72-.58,20.77,4.03,25.13,6.71Z"/>
        <path class="cls-3" d="M846.45,605.99c-1.17,3.16-2.67,8.78-1.32,15.39,2.54,12.4,13.14,18.53,15.92,20,3.37,1.77,6.4,2.57,8.68,3.03,9.75,1.97,21.56,1.08,46.18-7.63,17.4-6.15,21.02-9.07,33.95-11.45,6.9-1.27,12.7-1.69,16.61-1.84v15.92c-3.88-.27-9.58-.4-16.35.53-9,1.23-15.1,3.65-25.39,7.5-15.89,5.94-23.84,8.91-26.58,9.61-11.52,2.93-27.95,7.11-42.63-1.05-2.99-1.66-15.56-8.65-17.89-23.16-2.35-14.58,7.47-25.41,8.82-26.84Z"/>
        <path class="cls-3" d="M697.63,602.18c13.9,3.5,35.99,7.2,62.63,3.68,36.81-4.86,62.95-20.93,75.79-30.13-3.82,4.6-9.65,11.93-16.18,21.45-6.86,9.99-8.38,13.5-12.76,19.08-10.43,13.26-22.79,20.07-26.58,22.1-21.77,11.71-43.1,10.01-53.16,9.08-20.77-1.93-35.54-9.51-45.72-14.87-4.4-2.32-19.62-10.61-35.72-26.45-21.94-21.58-32-43.86-37.1-55.46-10.96-24.9-14.75-47.76-15.99-64.34,4.11,20.11,10.46,35.84,15.59,46.58,17.78,37.15,42.17,58.42,52.1,66.91,13.9,11.86,23.14,16.5,27.63,18.55,14.91,6.83,28.55,8.74,37.5,9.28-8.57-2.4-20.56-6.45-33.95-13.42-40.82-21.27-61.8-52.71-66.71-60.39-21.73-33.98-25.75-66.93-26.64-82.7,7.16,32.34,19.38,56.22,28.42,71.05,11.88,19.49,25.56,41.94,53.49,58.42,7.1,4.19,25.03,14.52,49.87,16.91,46.43,4.46,85.15-21.89,85.06-22.1-.05-.13-13.97,8.29-35.92,12.89-34.21,7.18-63.8.06-81.64-6.12Z"/>
        <path class="cls-3" d="M799.01,637.04c-7.15,4.92-18.43,11.47-33.42,15.53-26.61,7.21-48.66,2.16-57.63,0-61.27-14.78-93.37-77.43-102.1-94.47-8.14-15.9-19.48-42.9-23.16-79.74-.88,14.33-.63,35.97,6.05,61.05,3.5,13.13,13.54,45.18,40.79,76.58,26.73,30.8,55.91,44.73,68.95,50.79,12.56,5.83,22.4,8.92,31.84,11.84,37.83,11.71,69.47,14.84,95.26,16.84,34.5,2.68,82.23,5.18,140.88,4.74v-12.37c-25.2-.61-45.01-.77-58.78-.79-1.2,0-10.98-.02-24.08-.46-24.95-.84-33.37-2.27-40.36-4.05-10.19-2.59-16.4-5.35-19.54-6.91-2.77-1.38-5.26-2.81-7.47-4.21-5.15-3.26-11.07-5.09-17.16-5.27-23.31-.69-46.62-1.38-69.94-2.07,8.5-.08,21.67-1.21,36.58-6.84,15.75-5.95,26.8-14.4,33.29-20.2Z"/>
      </g>
      <g>
        <path class="cls-3" d="M1024.53,358.5c-6.57,3.98-20.23,13.58-28.42,31.38-3.66,7.94-10.22,22.2-5.13,39.08,5.53,18.35,21,27.07,24.67,29.01-2.19,1.98-5.18,4.2-9.08,5.92-3.2,1.41-15.69,7.12-26.05.99-6.47-3.83-9.35-10.64-10.33-12.96-.77-1.82-1.36-3.72-2.04-7.24-.98-5.04-1.97-12.44-1.67-21.91,0,13.27,0,26.53,0,39.8,4.27,7.19,9.5,9.85,11.87,10.82,11.68,4.81,27.51-.84,38.29-14.8,1.4.62,2.92,1.23,4.54,1.79,4.1,1.42,7.93,2.22,11.25,2.66-2.42,1.05-6.2,3.06-9.74,6.76,0,0-5.34,5.6-7.55,14.11-4.23,16.33,7.87,31.63,11.76,36.64,3.34,4.3,9.41,10.92,19.34,16.45-4.34-4.16-12.63-13.23-17.24-27.5-4.17-12.92-3.35-24.02-2.5-29.87,2.91,12.55,9.29,31.77,24.28,50.33,13.06,16.18,27.15,25.04,35.39,30.13,6.33,3.91,16.7,10.21,31.84,14.74,13.65,4.08,25.6,5.05,34.08,5.13-11.03-1.52-27.27-5.12-44.87-14.34-13.37-7.01-23.41-15.11-30.39-21.71,7.24,4.32,17.73,9.96,30.99,15,40.47,15.39,74.97,13.2,84.08,12.43,19.11-1.6,39.82-3.34,62.37-16.97,33.7-20.38,46.23-52.05,48.95-59.41,9.02-24.49,7.25-45.79,6.51-53.68-1.46-15.51-5.68-28.47-8.88-38.29-4.04-12.4-8.48-22.49-12.04-29.8-3.69-5.5-9.01-11.78-16.58-17.17-26.66-18.97-58.9-10.95-65.13-9.28,5.78-2.4,12.82-4.65,20.99-5.95,23.57-3.76,43.02,2.56,53.19,6.81-6.22-3.96-16.47-9.42-30.2-12.24-12.19-2.5-22.57-1.98-29.51-1.09,8.83-1.16,18.5-2.92,28.82-5.53,6.58-1.66,12.73-3.5,18.45-5.43-7.12,0-14.85.31-23.09,1.09-6.4.6-12.43,1.42-18.06,2.37,6.31-3.42,16.71-8.02,30.3-9.61,17.68-2.06,31.78,2.03,39.08,4.74-5.18-3.29-13.45-7.65-24.41-10-13.69-2.93-25.13-1.35-31.64.07,4.25-2.25,11.22-5.25,20.23-6.09,16.18-1.5,28.29,4.99,33.55,7.89,19.43,10.74,27.51,28.51,30,34.74-1.91-8.3-5.64-20.38-13.39-33.35-5.09-8.52-11.6-19.42-24.28-28.42-5.96-4.23-25.96-17.04-52.6-13.12-20.46,3.01-33.83,14.28-38.98,19.14,3.83-4.71,10.81-12.01,21.61-17.37,0,0,18.36-9.11,41.25-5.72,42.15,6.25,62.81,53.41,64.05,56.35-2.09-6.28-5.75-15.22-12.24-24.77-4.84-7.13-14.61-21.14-32.96-30.49-7.14-3.64-29.06-14.81-53.19-6.51-10.2,3.51-17.36,9.31-21.61,13.42,2.57-3.15,6.64-7.45,12.53-11.25,15.48-9.98,31.71-8.85,38.39-8.39,30.36,2.11,50.05,24.09,54.57,29.41-1.92-3.39-4.78-7.84-8.88-12.53-1.32-1.51-11.11-12.52-25.56-19.14-25.23-11.57-51.11-3.58-56.55-1.78-3.44,1.57-8.26,4.04-13.59,7.73-13.74,9.52-21.42,20.67-28.22,31.38-14.04,22.1-25.05,43.38-32.96,60.07,1.75-11.66,4.86-25.91,10.53-41.58,5.57-15.41,12.15-28.17,18.16-38.16-6.53,7.7-13.58,17.35-20,29.08-13.52,24.69-18.46,48-20.39,64.08.11-12.93,1.88-31.08,9.34-51.18,3.72-10.03,8.12-18.54,12.37-25.53-11.18,9.41-23.71,21.53-35.99,36.84-20.44,25.5-32.7,50.54-40.13,69.6,2.03-10.64,5.83-24.7,13.29-40.07,6.77-13.94,14.52-24.78,21.05-32.63.56-.67-9.43,8.09-17.17,18.42-7.39,9.86-12.16,18.99-15.13,25.53-1.12,3.2-2.76,8.02-4.61,13.95-2.91,9.31-3.2,11.32-5,15.66-2.63,6.34-4.77,11.49-9.47,15.92-1.63,1.53-11.33,10.28-23.68,7.89-11.99-2.32-17.73-13.43-18.95-15.79-6.97-13.49-3.5-31.63,8.12-46.71Z"/>
        <path class="cls-3" d="M1200.58,254.75c-3.26,2.31-7.04,5.37-10.86,9.37-4.34,4.54-7.5,9.01-9.77,12.73.9-3.17,3.4-10.27,10.16-16.09,3.85-3.31,7.75-5.07,10.46-6.02Z"/>
        <path class="cls-3" d="M990.32,526.85c2.11-.73,5.36-1.6,9.34-1.58,5.44.03,9.49,1.69,11.71,2.63,7.55,3.2,23.19,13.24,42.37,28.55-5.21-5.81-11.21-12.5-19.6-21.84-5.15-5.74-8.4-9.36-14.21-12.5-4.19-2.27-10.42-5.64-17.76-3.82-6.6,1.64-10.46,6.58-11.84,8.55Z"/>
        <path class="cls-3" d="M1012.29,509.61c-2.14-.76-6.1-1.83-10.92-1.05-9.13,1.47-14.12,8.4-15.13,9.87.2-1.1,1.44-7.35,7.11-10.79,5.6-3.4,13.24-2.67,18.95,1.97Z"/>
        <path class="cls-3" d="M1009.53,501.32c-2.49-.92-7.24-2.3-13.16-1.58-3.27.4-8.5,1.03-12.89,5.26-4.81,4.63-5.51,10.59-5.66,12.5-1.74-7.22.37-14.66,5.53-18.95,6.96-5.79,18.63-5.1,26.18,2.76Z"/>
        <path class="cls-3" d="M974.66,501.06c.47-2.11,4.07-4.9,5.67-6.25,4.42-3.74,9.88-6.06,15.55-7.08,3.99-.72,9.6.46,12.8-2.54,1.75-1.64,1.98-3.84.58-5.83-2.71-3.85-15.24-2.31-23.55,3.82-7.66,5.64-10.18,14.03-11.05,17.89Z"/>
        <path class="cls-3" d="M1297.42,379.09c5.42,11.03,12.23,27.94,15.26,49.47,1.8,12.73,5.58,41.93-6.32,72.63-18.79,48.49-64.37,68.89-75.26,73.42,8.16-2.06,55.07-14.71,79.47-60.53,22.22-41.71,17.02-94.46-13.16-135Z"/>
        <path class="cls-3" d="M1001.37,585.99c3.34-3.96,10.48-11.2,21.84-14.47,17.85-5.15,35.04,2.66,44.47,11.84,6.72,6.54,8.55,12.86,8.95,14.34.82,3.05,2.79,10.39-1.32,16.58-.72,1.08-3.37,5.08-8.42,6.05-4.52.87-9.8-.72-12.5-4.61-2.23-3.21-2.36-7.44-1.4-11.11,1.08-4.16,1.78-8.46-.27-12.45-1.5-2.93-4.01-5.22-6.75-6.98-5.69-3.67-12.74-5.56-19.47-5.9-11.72-.58-20.77,4.03-25.13,6.71Z"/>
        <path class="cls-3" d="M1086.5,605.99c1.17,3.16,2.67,8.78,1.32,15.39-2.54,12.4-13.14,18.53-15.92,20-3.37,1.77-6.4,2.57-8.68,3.03-9.75,1.97-21.56,1.08-46.18-7.63-17.4-6.15-21.02-9.07-33.95-11.45-6.9-1.27-12.7-1.69-16.61-1.84v15.92c3.88-.27,9.58-.4,16.35.53,9,1.23,15.1,3.65,25.39,7.5,15.89,5.94,23.84,8.91,26.58,9.61,11.52,2.93,27.95,7.11,42.63-1.05,2.99-1.66,15.56-8.65,17.89-23.16,2.35-14.58-7.47-25.41-8.82-26.84Z"/>
        <path class="cls-3" d="M1235.32,602.18c-13.9,3.5-35.99,7.2-62.63,3.68-36.81-4.86-62.95-20.93-75.79-30.13,3.82,4.6,9.65,11.93,16.18,21.45,6.86,9.99,8.38,13.5,12.76,19.08,10.43,13.26,22.79,20.07,26.58,22.1,21.77,11.71,43.1,10.01,53.16,9.08,20.77-1.93,35.54-9.51,45.72-14.87,4.4-2.32,19.62-10.61,35.72-26.45,21.94-21.58,32-43.86,37.1-55.46,10.96-24.9,14.75-47.76,15.99-64.34-4.11,20.11-10.46,35.84-15.59,46.58-17.78,37.15-42.17,58.42-52.1,66.91-13.9,11.86-23.14,16.5-27.63,18.55-14.91,6.83-28.55,8.74-37.5,9.28,8.57-2.4,20.56-6.45,33.95-13.42,40.82-21.27,61.8-52.71,66.71-60.39,21.73-33.98,25.75-66.93,26.64-82.7-7.16,32.34-19.38,56.22-28.42,71.05-11.88,19.49-25.56,41.94-53.49,58.42-7.1,4.19-25.03,14.52-49.87,16.91-46.43,4.46-85.15-21.89-85.06-22.1.05-.13,13.97,8.29,35.92,12.89,34.21,7.18,63.8.06,81.64-6.12Z"/>
        <path class="cls-3" d="M1133.94,637.05c7.15,4.92,18.43,11.47,33.42,15.53,26.61,7.21,48.66,2.16,57.63,0,61.27-14.78,93.37-77.43,102.1-94.47,8.14-15.9,19.48-42.9,23.16-79.74.88,14.33.63,35.97-6.05,61.05-3.5,13.13-13.54,45.18-40.79,76.58-26.73,30.8-55.91,44.73-68.95,50.79-12.56,5.83-22.4,8.92-31.84,11.84-37.83,11.71-69.47,14.84-95.26,16.84-34.5,2.68-82.23,5.18-140.88,4.74v-12.37c25.2-.61,45.01-.77,58.78-.79,1.2,0,10.98-.02,24.08-.46,24.95-.84,33.37-2.27,40.36-4.05,10.19-2.59,16.4-5.35,19.54-6.91,2.77-1.38,5.26-2.81,7.47-4.21,5.15-3.26,11.07-5.09,17.16-5.27,23.31-.69,46.62-1.38,69.94-2.07-8.5-.08-21.67-1.21-36.58-6.84-15.75-5.95-26.8-14.4-33.29-20.2Z"/>
      </g>
    </g>
    <g>
      <g>
        <g>
          <path class="cls-4" d="M876.15,465.08c-6.55-.57-16.61-1.99-28.16-6.05-14.15-4.97-26.38-13.82-50.26-31.32-18.61-13.63-28.62-22.37-31.32-24.74-8.62-7.58-15.67-14.48-21.05-20-6.93-.07-20.03.78-33.42,8.42-30.06,17.16-33.21,52.31-33.42,55.26-2.07,28.47,14.23,48.45,18.42,53.42,27.32,32.41,71.21,29.76,80.26,29.21,38.84-2.35,64.37-25.13,72.1-32.63-2.62,5.84-7.43,14.65-16.05,22.89-3.02,2.89-14.01,12.88-36.58,18.95-15.66,4.21-54.76,14.71-91.58-8.42-7.11-4.46-34.39-22.23-42.63-57.89-1.82-7.87-8.29-40.75,13.16-70.79,18.82-26.36,46.51-32.84,53.16-34.21v-1.65c-7.28-.19-17.86.52-29.21,5.23-39.31,16.3-47.64,63.76-48.42,68.68-.87,5.45-5.92,40.71,16.05,70.79,37.4,51.21,118.76,40.39,152.63,26.84,9.46-3.78,15.64-7.95,18.16-9.74,26.57-18.83,35.17-48.42,38.16-62.27Z"/>
          <path class="cls-4" d="M889.5,465.64l3.16-.13c0,8.28-1.22,18.96-5.92,30.26-15.34,36.85-54.57,48.54-61.18,50.39,8.76-3.41,21.6-9.76,33.82-21.58,22.84-22.09,28.51-48.76,30.13-58.95Z"/>
        </g>
        <path class="cls-4" d="M700.16,635.11c8.03,3.86,22.59,9.48,41.32,9.21,10.81-.16,19.84-2.23,26.45-4.34-9.33,1.09-20.74,1.69-33.68.79-13.31-.92-24.82-3.2-34.08-5.66Z"/>
      </g>
      <g>
        <g>
          <path class="cls-4" d="M1054.97,465.08c6.55-.57,16.61-1.99,28.16-6.05,14.15-4.97,26.38-13.82,50.26-31.32,18.61-13.63,28.62-22.37,31.32-24.74,8.62-7.58,15.67-14.48,21.05-20,6.93-.07,20.03.78,33.42,8.42,30.06,17.16,33.21,52.31,33.42,55.26,2.07,28.47-14.23,48.45-18.42,53.42-27.32,32.41-71.21,29.76-80.26,29.21-38.84-2.35-64.37-25.13-72.1-32.63,2.62,5.84,7.43,14.65,16.05,22.89,3.02,2.89,14.01,12.88,36.58,18.95,15.66,4.21,54.76,14.71,91.58-8.42,7.11-4.46,34.39-22.23,42.63-57.89,1.82-7.87,8.29-40.75-13.16-70.79-18.82-26.36-46.51-32.84-53.16-34.21v-1.65c7.28-.19,17.86.52,29.21,5.23,39.31,16.3,47.64,63.76,48.42,68.68.87,5.45,5.92,40.71-16.05,70.79-37.4,51.21-118.76,40.39-152.63,26.84-9.46-3.78-15.64-7.95-18.16-9.74-26.57-18.83-35.17-48.42-38.16-62.27Z"/>
          <path class="cls-4" d="M1041.61,465.64l-3.16-.13c0,8.28,1.22,18.96,5.92,30.26,15.34,36.85,54.57,48.54,61.18,50.39-8.76-3.41-21.6-9.76-33.82-21.58-22.84-22.09-28.51-48.76-30.13-58.95Z"/>
        </g>
        <path class="cls-4" d="M1230.95,635.11c-8.03,3.86-22.59,9.48-41.32,9.21-10.81-.16-19.84-2.23-26.45-4.34,9.33,1.09,20.74,1.69,33.68.79,13.31-.92,24.82-3.2,34.08-5.66Z"/>
      </g>
    </g>
    <g>
      <g>
        <path class="cls-1" d="M960.24,295.85c4.26-1.33,8.81-1.33,13.07,0,.25.08.49.16.75.24,6.87,2.25,10.61,4.88,13.42,6.32,11.37,5.79,25.33.96,27.43.2,11.2-4.05,17.32-12.31,19.54-15.69-6.8,5.17-20.73,14.18-34.24,11.55-4.25-.83-8.49-1.86-12.51-3.5s-7.71-4.55-11.89-6.16c-1.37-.53-2.78-.93-4.22-1.2-2-.37-3.69-.42-4.81-.39-1.12-.02-2.81.02-4.81.39-3.04.56-5.9,1.74-8.53,3.35-3.15,1.92-6.23,3.66-9.74,4.84s-6.85,1.99-10.35,2.67c-13.51,2.63-27.44-6.38-34.24-11.55,2.22,3.38,8.34,11.64,19.54,15.69,2.11.76,16.06,5.6,27.43-.2,2.82-1.43,6.55-4.07,13.42-6.32.25-.08.5-.16.75-.24Z"/>
        <g>
          <path class="cls-2" d="M870.71,399.59c5.45,7.58,14.7,11.38,23.68,9.74,12.76-2.33,17.63-14.32,17.89-15,.41,7.87-3.3,15.28-9.74,19.21-8.29,5.07-17.02,1.86-18.42,1.32-10.26-3.97-13.14-14.18-13.42-15.26Z"/>
          <path class="cls-2" d="M1062.84,399.59c-5.45,7.58-14.7,11.38-23.68,9.74-12.76-2.33-17.63-14.32-17.89-15-.41,7.87,3.3,15.28,9.74,19.21,8.29,5.07,17.02,1.86,18.42,1.32,10.26-3.97,13.14-14.18,13.42-15.26Z"/>
        </g>
      </g>
      <circle class="cls-2" cx="966.77" cy="334.46" r="25.53"/>
      <circle class="cls-2" cx="1158.54" cy="449.76" r="48.79"/>
    </g>
  </g>
</svg>